<svg width="120" height="118" viewBox="0 0 120 118" fill="none" xmlns="http://www.w3.org/2000/svg">
<path d="M3.33336 2.99999C0.800024 5.79999 1.33336 6.33332 56.6667 61.6667L112.533 117.533L115.6 114.733L118.8 111.8L106.8 99.6667L94.8 87.6667L100.8 83.2667C107.2 78.4667 120 62.3333 120 59C120 55.9333 106.533 40.2 98.4 33.9333C94.5334 31 87.0667 26.4667 82 24.0667C73.4667 20.0667 71.6 19.6667 60 19.6667C49.6 19.8 46 20.3333 40.2667 22.8667L33.0667 26.0667L20.2667 13.2667C13.0667 6.06665 6.93336 0.333319 6.53336 0.333319C6.13336 0.333319 4.66669 1.53332 3.33336 2.99999ZM71.3334 33.5333C85.6 39.9333 92.4 59.9333 84.5334 72.0667L82.4 75.2667L78.8 71.8C75.8667 68.7333 75.3334 67.1333 75.3334 60.3333C75.3334 53.1333 74.9334 51.9333 70.9334 48.0667C67.0667 44.0667 65.8667 43.6667 58.8 43.6667C52.2667 43.6667 50.2667 43.1333 47.4667 40.4667C44.8 37.9333 44.4 36.8667 45.4667 35.4C49.3334 30.8667 63.3334 29.8 71.3334 33.5333Z" fill="black"/>
<path d="M13.2 41.2667C6.13333 48.7333 0 57.1333 0 59.1333C0 62.4667 13.0667 78.7333 19.8667 84.2C33.4667 94.8667 49.7333 99.9333 65.3333 98.4667C70.1333 98.0667 75.3333 97.2667 77.0667 96.8667C80.1333 95.9333 80.1333 95.9333 75.2 90.8667C70.2667 85.9333 70 85.6667 63.2 86.4667C45.2 88.6 30.4 73.9333 32.4 56.0667C33.3333 49.1333 33.2 49 27.0667 42.7333C23.6 39.1333 20.1333 36.3333 19.3333 36.3333C18.5333 36.3333 15.7333 38.6 13.2 41.2667Z" fill="black"/>
<path d="M44.6666 63C45.8666 67.2667 50.3999 72.3333 54.5333 73.8C56.2666 74.4667 57.8666 74.8667 58.1333 74.6C58.3999 74.3333 55.1999 70.8667 51.1999 66.8667C45.0666 61 43.8666 60.3333 44.6666 63Z" fill="black"/>
</svg>
