<svg width="120" height="80" viewBox="0 0 120 80" fill="none" xmlns="http://www.w3.org/2000/svg">
<path d="M47.4667 1.33335C40.1333 3.20002 29.7333 8.66668 21.4667 15.0667C13.3333 21.3334 0 36.8 0 39.8667C0 43.3334 12.8 59.4667 19.8667 65.2C44.8 84.8 76 84.5334 100.667 64.5334C108 58.5334 120 43.2 120 39.7334C120 36.8 106.267 21.0667 98.4 14.9334C86.6667 5.86668 75.0667 1.20002 62.9333 0.533354C57.3333 0.266687 50.4 0.666687 47.4667 1.33335ZM71.3333 14.5334C89.2 22.6667 93.3333 45.6 79.4667 59.4667C65.4667 73.4667 42.9333 69.4667 34.5333 51.3334C24 28.5334 48.4 4.13335 71.3333 14.5334Z" fill="black"/>
<path d="M51.8667 31.8667C49.2 34.5333 48 37.0667 48 40C48 45.7333 54.2667 52 60 52C65.7333 52 72 45.7333 72 40C72 34.2667 65.7333 28 60 28C57.0667 28 54.5333 29.2 51.8667 31.8667Z" fill="black"/>
</svg>
