<svg width="115" height="122" viewBox="0 0 115 122" fill="none" xmlns="http://www.w3.org/2000/svg">
<path d="M36.5333 1.6C27.7333 5.46667 28.2666 19.0667 37.1999 22.1333C50.9333 26.9333 59.1999 7.2 45.8666 1.6C40.6666 -0.533332 41.5999 -0.533332 36.5333 1.6Z" fill="#338BFF"/>
<path d="M44.6667 29.8667C37.3333 31.4667 31.2 33.3333 30.9333 34C30.8 34.5333 28.8 38 26.5333 41.4667L22.5333 47.8667L16.2667 47.0667C12.8 46.5333 8.93333 45.8667 7.73333 45.6C5.6 44.9333 0 49.2 0 51.4667C0 55.3333 4.26667 57.6 14.8 59.2L26 60.8L28.9333 57.3333L32 53.7333V62.6667C32 69.2 30.9333 74.5333 28.1333 82.2667L24.2667 92.8L26.8 103.2C28.1333 109.067 29.6 115.067 30 116.667C30.9333 120.667 35.2 122.933 38.5333 121.2C42.4 119.067 42.6667 116.8 39.8667 105.867L37.2 95.7333L40.1333 89.0667C41.7333 85.3333 43.3333 82.6667 43.7333 82.9333C44.1333 83.3333 45.7333 86.8 47.2 90.8C50.2667 98 62.8 115.067 66.2667 116.267C67.3333 116.667 69.3333 116.533 70.6667 115.733C75.6 113.067 75.0667 110.133 66.6667 98L58.6667 86.1333V63.4667V40.9333L64.4 45.6L70.2667 50.4L80.5333 46.9333C91.3333 43.2 94.4 40.2667 92.1333 35.8667C90 31.8667 87.2 31.6 79.3333 34.6667L72 37.4667L66 31.8667C62.8 28.9333 59.6 26.4 59.0667 26.5333C58.4 26.6667 52 28.1333 44.6667 29.8667Z" fill="#338BFF"/>
<path d="M97.6 52C96.5333 53.0667 96 58 96 65.3333V77.0667H91.3333C88 77.0667 85.4666 78.1333 83.3333 80.4C79.2 84.4 79.2 85.7333 83.4666 90C86.1333 92.6667 87.6 93.2 91.0666 92.5333C98.9333 90.9333 100.667 87.8667 101.2 73.6L101.6 60.8L105.2 61.4667C107.2 61.8667 109.6 62.4 110.533 62.6667C111.467 62.9333 112.933 62 113.733 60.6667C116.133 57.2 113.467 54.2667 106 52.2667C102.267 51.3333 99.3333 50.5333 99.3333 50.4C99.2 50.4 98.5333 51.0667 97.6 52Z" fill="#338BFF"/>
</svg>
